<svg width="148" height="159" viewBox="0 0 148 159" fill="none" xmlns="http://www.w3.org/2000/svg">
<g clip-path="url(#clip0_227_2750)">
<path fill-rule="evenodd" clip-rule="evenodd" d="M5.00025 0.0199972C10.9332 -0.171003 15.0002 1.01953 22.0002 3.0206C60.4852 16.2936 98.8182 30.4585 137 44.5195C144.5 48.5195 145.578 52.995 147.5 59.02C148.447 68.787 148.113 78.454 146.5 88.02C143.679 92.183 139.845 93.683 135 92.52C92.2582 77.717 49.5912 62.717 7.00025 47.52C4.02725 45.755 1.86025 43.255 0.50025 40.02C-0.16675 28.353 -0.16675 16.687 0.50025 5.02C0.450949 1.8899 1.98616 0.0651959 5.00025 0.0199972Z" fill="#ADC6FF"/>
<path fill-rule="evenodd" clip-rule="evenodd" d="M46.0001 84.0678C51.08 83.7966 56.08 84.339 61 85.6949C79.0109 92.3031 96.8438 99.354 114.5 106.847C115.167 108.293 115.167 109.74 114.5 111.186C82.0169 123.655 49.517 136.13 17.0002 148.61C10.8462 151.505 6.01223 149.878 2.50025 143.729C1.83325 131.435 1.83325 119.141 2.50025 106.847C4.40224 101.532 7.90222 98.0968 13.0002 96.5423C24.0872 92.2337 35.0871 88.0759 46.0001 84.0678Z" fill="#ADC6FF"/>
</g>
<defs>
<clipPath id="clip0_227_2750">
<rect width="148" height="159" fill="white"/>
</clipPath>
</defs>
</svg>
